<svg width="140" height="23" viewBox="0 0 140 23" version="1.1" xmlns="http://www.w3.org/2000/svg" xmlns:xlink="http://www.w3.org/1999/xlink">
<title>Logo</title>
<desc>Created using Figma</desc>
<g id="Canvas" transform="translate(1590 408)">
<g id="Logo">
<use xlink:href="#path0_fill" transform="translate(-1589.44 -407.728)" fill="#FFFFFF"/>
<use xlink:href="#path1_fill" transform="translate(-1589.44 -407.728)" fill="#FFFFFF"/>
<use xlink:href="#path2_fill" transform="translate(-1589.44 -407.728)" fill="#FFFFFF"/>
<use xlink:href="#path3_fill" transform="translate(-1589.44 -407.728)" fill="#FFFFFF"/>
<use xlink:href="#path4_fill" transform="translate(-1589.44 -407.728)" fill="#FFFFFF"/>
<use xlink:href="#path5_fill" transform="translate(-1589.44 -407.728)" fill="#FFFFFF"/>
<use xlink:href="#path6_fill" transform="translate(-1589.44 -407.728)" fill="#FFFFFF"/>
<use xlink:href="#path7_fill" transform="translate(-1589.44 -407.728)" fill="#FFFFFF"/>
<use xlink:href="#path8_fill" transform="translate(-1589.44 -407.728)" fill="#FFFFFF"/>
<use xlink:href="#path9_fill" transform="translate(-1589.44 -407.728)" fill="#FFFFFF"/>
</g>
</g>
<defs>
<path id="path0_fill" d="M 0 0.384L 0 21.728L 3.264 21.728L 3.264 13.056L 4.736 13.056C 6.304 13.056 8.256 12.832 9.952 11.392C 11.712 9.888 12.032 7.968 12.032 6.72C 12.032 4.768 11.168 2.72 9.376 1.536C 7.84 0.512 6.016 0.384 4.704 0.384L 0 0.384ZM 3.264 3.392L 4.704 3.392C 8.416 3.392 8.896 5.504 8.896 6.688C 8.896 8.672 7.552 10.048 4.736 10.048L 3.264 10.048L 3.264 3.392Z"/>
<path id="path1_fill" d="M 24.19 9.824C 22.91 8.16 21.182 7.904 20.19 7.904C 16.638 7.904 13.63 10.592 13.63 14.976C 13.63 18.688 15.998 22.144 20.158 22.144C 21.118 22.144 22.814 21.92 24.19 20.32L 24.19 21.728L 27.326 21.728L 27.326 8.256L 24.19 8.256L 24.19 9.824ZM 20.574 10.72C 22.558 10.72 24.382 12.128 24.382 15.072C 24.382 17.888 22.558 19.328 20.574 19.328C 18.302 19.328 16.83 17.376 16.83 15.04C 16.83 12.64 18.302 10.72 20.574 10.72Z"/>
<path id="path2_fill" d="M 37.0947 11.136L 37.0947 8.256L 34.6947 8.256L 34.6947 3.328L 31.5588 3.328L 31.5588 8.256L 30.2467 8.256L 30.2467 11.136L 31.5588 11.136L 31.5588 21.728L 34.6947 21.728L 34.6947 11.136L 37.0947 11.136Z"/>
<path id="path3_fill" d="M 45.6297 11.136L 45.6297 8.256L 43.2297 8.256L 43.2297 3.328L 40.0938 3.328L 40.0938 8.256L 38.7817 8.256L 38.7817 11.136L 40.0938 11.136L 40.0938 21.728L 43.2297 21.728L 43.2297 11.136L 45.6297 11.136Z"/>
<path id="path4_fill" d="M 57.3477 17.184C 57.0597 17.696 56.6438 18.24 56.0998 18.656C 55.4598 19.136 54.8197 19.328 53.9557 19.328C 53.1877 19.328 52.2917 19.2 51.5557 18.464C 50.8837 17.792 50.4677 16.704 50.4037 15.744L 60.0677 15.744L 60.0677 15.36C 60.0677 13.952 59.9077 11.456 58.1797 9.664C 57.3797 8.832 56.0037 7.904 53.8597 7.904C 51.9397 7.904 50.4677 8.608 49.3477 9.728C 47.9397 11.168 47.2038 13.184 47.2038 15.264C 47.2038 17.28 47.9077 19.136 49.1877 20.416C 50.4677 21.696 51.9398 22.144 53.7318 22.144C 55.1718 22.144 56.6117 21.824 57.6997 21.12C 58.5637 20.576 59.3957 19.68 59.9717 18.656L 57.3477 17.184ZM 50.6278 13.184C 50.7878 12.512 51.1397 11.872 51.5877 11.456C 52.0037 11.04 52.7077 10.592 53.7957 10.592C 54.8197 10.592 55.4917 10.976 55.9077 11.36C 56.3877 11.808 56.7397 12.448 56.8677 13.184L 50.6278 13.184Z"/>
<path id="path5_fill" d="M 63.5053 21.728L 66.6413 21.728L 66.6413 14.752C 66.6413 13.856 66.6413 12.576 67.5053 11.648C 68.1133 11.008 68.7853 10.912 69.4573 10.912C 69.7773 10.912 70.3533 10.944 71.0573 11.392L 72.3372 8.544C 71.4732 8.032 70.6413 7.904 69.8733 7.904C 69.1693 7.904 68.5613 8 67.9533 8.352C 67.5053 8.608 66.9933 9.056 66.6413 9.472L 66.6413 8.256L 63.5053 8.256L 63.5053 21.728Z"/>
<path id="path6_fill" d="M 74.2582 21.728L 77.3942 21.728L 77.3942 15.264C 77.3942 10.912 78.8342 10.72 80.2422 10.72C 81.4262 10.72 82.7062 10.816 82.7062 14.24L 82.7062 21.728L 85.8422 21.728L 85.8422 13.472C 85.8422 11.392 85.5222 10.464 85.0102 9.728C 84.5942 9.152 83.5383 7.904 81.0423 7.904C 80.2743 7.904 78.7382 8 77.3942 9.504L 77.3942 8.256L 74.2582 8.256L 74.2582 21.728Z"/>
<path id="path7_fill" d="M 106.365 1.536C 104.509 0.352 102.621 0 100.669 0C 97.7255 0 95.1655 0.704 92.9575 2.784C 91.1655 4.48 89.5335 7.2 89.5335 11.136C 89.5335 14.144 90.4615 16.864 92.9575 19.2C 94.2055 20.384 96.6375 22.144 100.509 22.144C 101.981 22.144 104.221 21.824 106.365 20.544L 106.365 16.672C 105.149 17.824 103.165 19.136 100.605 19.136C 96.0615 19.136 92.7975 15.648 92.7975 11.136C 92.7975 6.432 95.9335 3.008 100.573 3.008C 101.789 3.008 103.997 3.232 106.365 5.376L 106.365 1.536Z"/>
<path id="path8_fill" d="M 122.401 3.584C 121.953 2.688 121.345 1.952 120.769 1.44C 120.097 0.864 118.785 0 116.481 0C 112.481 0 110.241 2.752 110.241 5.632C 110.241 8.832 112.833 10.304 114.593 11.04L 116.641 11.904C 118.049 12.48 119.713 13.376 119.713 15.552C 119.713 17.696 118.177 19.136 116.193 19.136C 114.913 19.136 114.017 18.624 113.409 17.856C 112.897 17.184 112.513 16.192 112.513 15.136L 109.281 15.84C 109.409 17.312 109.921 18.72 111.073 20C 112.161 21.216 113.633 22.144 116.097 22.144C 120.097 22.144 122.977 19.36 122.977 15.296C 122.977 12.864 121.889 10.624 117.953 9.024L 115.809 8.16C 113.729 7.328 113.505 6.208 113.505 5.568C 113.505 4.192 114.529 3.008 116.513 3.008C 117.441 3.008 118.145 3.232 118.817 3.776C 119.297 4.192 119.585 4.64 119.777 5.12L 122.401 3.584Z"/>
<path id="path9_fill" d="M 138.374 3.584C 137.926 2.688 137.318 1.952 136.742 1.44C 136.07 0.864 134.758 0 132.454 0C 128.454 0 126.214 2.752 126.214 5.632C 126.214 8.832 128.806 10.304 130.566 11.04L 132.614 11.904C 134.022 12.48 135.686 13.376 135.686 15.552C 135.686 17.696 134.15 19.136 132.166 19.136C 130.886 19.136 129.99 18.624 129.382 17.856C 128.87 17.184 128.486 16.192 128.486 15.136L 125.254 15.84C 125.382 17.312 125.894 18.72 127.046 20C 128.134 21.216 129.606 22.144 132.07 22.144C 136.07 22.144 138.95 19.36 138.95 15.296C 138.95 12.864 137.862 10.624 133.926 9.024L 131.782 8.16C 129.702 7.328 129.478 6.208 129.478 5.568C 129.478 4.192 130.502 3.008 132.486 3.008C 133.414 3.008 134.118 3.232 134.79 3.776C 135.27 4.192 135.558 4.64 135.75 5.12L 138.374 3.584Z"/>
</defs>
</svg>
