<svg width="340" height="233" viewBox="0 0 340 233" version="1.1" xmlns="http://www.w3.org/2000/svg" xmlns:xlink="http://www.w3.org/1999/xlink">
<title>scss flow</title>
<desc>Created using Figma</desc>
<g id="Canvas" transform="translate(1910 -722)">
<g id="scss flow">
<g id="_grid.scss">
<use xlink:href="#path0_fill" transform="translate(-1896 783)" fill="#152A33" fill-opacity="0.65"/>
</g>
<g id="_colors.scss">
<use xlink:href="#path1_fill" transform="translate(-1912 873)" fill="#152A33" fill-opacity="0.65"/>
</g>
<g id="_cards.scss">
<use xlink:href="#path2_fill" transform="translate(-1677 873)" fill="#152A33" fill-opacity="0.65"/>
</g>
<g id="_typography.scss">
<use xlink:href="#path3_fill" transform="translate(-1814 935)" fill="#152A33" fill-opacity="0.65"/>
</g>
<g id="_buttons.scss">
<use xlink:href="#path4_fill" transform="translate(-1677 783)" fill="#152A33" fill-opacity="0.65"/>
</g>
<g id="main.scss">
<use xlink:href="#path5_fill" transform="translate(-1785 828)" fill="#152A33" fill-opacity="0.65"/>
</g>
<g id="_form.scss">
<use xlink:href="#path6_fill" transform="translate(-1790 719)" fill="#152A33" fill-opacity="0.65"/>
</g>
<g id="Vector">
<use xlink:href="#path7_stroke" transform="matrix(1 4.37114e-08 -4.37114e-08 1 -1748 745)" fill="#0066DC"/>
</g>
<g id="Vector">
<use xlink:href="#path8_stroke" transform="matrix(-1 4.37114e-08 -4.37114e-08 -1 -1748 929)" fill="#0066DC"/>
</g>
<g id="Vector 2">
<use xlink:href="#path9_stroke" transform="translate(-1807 795)" fill="#0066DC"/>
</g>
<g id="Vector 2.2">
<use xlink:href="#path10_stroke" transform="matrix(-1 0 0 1 -1651 815)" fill="#0066DC"/>
</g>
<g id="Vector 2.4">
<use xlink:href="#path10_stroke" transform="matrix(1 0 0 -1 -1845 863)" fill="#0066DC"/>
</g>
<g id="Vector 2.3">
<use xlink:href="#path11_stroke" transform="matrix(-1 0 0 -1 -1688 885)" fill="#0066DC"/>
</g>
</g>
</g>
<defs>
<path id="path0_fill" d="M 2.07422 16.8438L 8.7627 16.8438L 8.7627 16L 2.07422 16L 2.07422 16.8438ZM 15.0314 14.9189C 13.8625 14.7607 12.7638 14.4355 12.7638 13.4775C 12.7638 13.1611 12.9308 12.9414 13.1681 12.748C 13.6427 12.9854 14.2052 13.1172 14.8117 13.1172C 16.6134 13.1172 17.9845 12.0186 17.9845 10.1465C 17.9845 9.63672 17.8703 9.16211 17.6681 8.74023L 19.1183 7.61523L 18.4679 6.78027L 17.1408 8.00195C 16.5871 7.44824 15.7873 7.10547 14.8293 7.10547C 13.0187 7.10547 11.63 8.29199 11.63 10.1465C 11.63 10.9639 11.9025 11.6406 12.3683 12.1416C 11.8761 12.5723 11.7707 13.0732 11.7707 13.5127C 11.7707 14.4092 12.2629 14.9717 12.9484 15.332L 11.5949 16.7207C 11.5773 16.8438 11.5773 16.958 11.5773 17.0459C 11.5773 18.6807 13.0714 19.999 15.2863 19.999C 17.0441 19.999 18.7052 19.1465 18.7052 17.3887C 18.7052 15.4023 16.8507 15.1738 15.0314 14.9189ZM 14.7941 7.99316C 16.0597 7.99316 16.8683 8.95996 16.8683 10.1113C 16.8683 11.377 16.0421 12.2031 14.7941 12.2031C 13.5548 12.2031 12.7463 11.377 12.7463 10.1113C 12.7463 8.99512 13.5373 7.99316 14.7941 7.99316ZM 15.4093 18.9707C 13.59 18.9707 12.6144 17.96 12.6408 17.0635L 13.8273 15.6836C 14.1261 15.7715 14.4425 15.8418 14.7414 15.8945C 16.2707 16.1582 17.7472 16.2021 17.7472 17.4414C 17.7472 18.4873 16.5783 18.9707 15.4093 18.9707ZM 21.1331 16L 22.2318 16L 22.2318 11.4473C 22.2318 9.35547 23.0931 8.08105 24.7191 8.08105C 25.1497 8.08105 25.5277 8.16895 25.8177 8.42383L 26.2659 7.44824C 25.9583 7.2373 25.5101 7.03516 24.8948 7.03516C 23.7611 7.03516 22.7152 7.7207 22.2493 8.80176L 22.2493 7.21973L 21.1331 7.21973L 21.1331 16ZM 28.0962 5.19824L 29.4057 5.19824L 29.4057 3.58105L 28.0962 3.58105L 28.0962 5.19824ZM 28.2016 16L 29.3003 16L 29.3003 7.21973L 28.2016 7.21973L 28.2016 16ZM 38.1266 3.58105L 38.1266 8.49414C 37.5553 7.63281 36.6852 7.03516 35.3229 7.03516C 33.1256 7.03516 31.86 9.07422 31.86 11.6055C 31.86 14.1279 33.1256 16.1758 35.3229 16.1758C 36.7379 16.1758 37.5465 15.543 38.1266 14.7168L 38.1266 16L 39.2252 16L 39.2252 3.58105L 38.1266 3.58105ZM 35.6041 15.2793C 33.776 15.2793 32.9938 13.4775 32.9938 11.6055C 32.9938 9.75098 33.776 7.93164 35.6041 7.93164C 37.4762 7.93164 38.2145 9.75098 38.2145 11.6055C 38.2145 13.4775 37.4762 15.2793 35.6041 15.2793ZM 42.9715 16L 44.6063 16L 44.6063 14.4531L 42.9715 14.4531L 42.9715 16ZM 50.708 16.1758C 52.2021 16.1758 53.6259 15.3145 53.6259 13.5479C 53.6259 10.3311 48.8183 11.4648 48.8183 9.26758C 48.8183 8.47656 49.4511 7.93164 50.4619 7.93164C 51.3935 7.93164 52.0791 8.38867 52.4746 9.21484L 53.2656 8.74902C 52.7646 7.73828 51.8066 7.03516 50.497 7.03516C 49.0556 7.03516 47.8339 7.87891 47.8339 9.39062C 47.8339 12.3438 52.5625 11.1396 52.5625 13.7324C 52.5625 14.7959 51.7539 15.2793 50.7695 15.2793C 49.5742 15.2793 48.8183 14.5586 48.5019 13.5479L 47.5439 14.0752C 47.9394 15.1914 49.1084 16.1758 50.708 16.1758ZM 58.9366 16.1758C 60.4835 16.1758 61.6349 15.332 62.1446 13.9082L 61.2042 13.4775C 60.9405 14.5762 60.0353 15.2793 58.9191 15.2793C 56.9943 15.2793 56.3614 13.3018 56.3614 11.623C 56.3614 9.9707 57.0118 7.93164 58.9191 7.93164C 60.0177 7.93164 60.9405 8.65234 61.2042 9.76855L 62.2501 9.30273C 61.6349 7.93164 60.4659 7.03516 58.9191 7.03516C 56.4757 7.03516 55.2277 9.25 55.2277 11.623C 55.2277 14.0225 56.4933 16.1758 58.9366 16.1758ZM 66.8489 16.1758C 68.343 16.1758 69.7669 15.3145 69.7669 13.5479C 69.7669 10.3311 64.9593 11.4648 64.9593 9.26758C 64.9593 8.47656 65.5921 7.93164 66.6028 7.93164C 67.5345 7.93164 68.22 8.38867 68.6155 9.21484L 69.4065 8.74902C 68.9055 7.73828 67.9475 7.03516 66.638 7.03516C 65.1966 7.03516 63.9749 7.87891 63.9749 9.39062C 63.9749 12.3438 68.7034 11.1396 68.7034 13.7324C 68.7034 14.7959 67.8948 15.2793 66.9104 15.2793C 65.7151 15.2793 64.9593 14.5586 64.6429 13.5479L 63.6848 14.0752C 64.0804 15.1914 65.2493 16.1758 66.8489 16.1758ZM 74.4799 16.1758C 75.9741 16.1758 77.3979 15.3145 77.3979 13.5479C 77.3979 10.3311 72.5903 11.4648 72.5903 9.26758C 72.5903 8.47656 73.2231 7.93164 74.2338 7.93164C 75.1655 7.93164 75.851 8.38867 76.2465 9.21484L 77.0375 8.74902C 76.5366 7.73828 75.5786 7.03516 74.269 7.03516C 72.8276 7.03516 71.6059 7.87891 71.6059 9.39062C 71.6059 12.3438 76.3344 11.1396 76.3344 13.7324C 76.3344 14.7959 75.5258 15.2793 74.5414 15.2793C 73.3461 15.2793 72.5903 14.5586 72.2739 13.5479L 71.3159 14.0752C 71.7114 15.1914 72.8803 16.1758 74.4799 16.1758Z"/>
<path id="path1_fill" d="M 2.07422 16.8438L 8.7627 16.8438L 8.7627 16L 2.07422 16L 2.07422 16.8438ZM 15.1545 16.1758C 16.7013 16.1758 17.8527 15.332 18.3625 13.9082L 17.422 13.4775C 17.1584 14.5762 16.2531 15.2793 15.1369 15.2793C 13.2121 15.2793 12.5793 13.3018 12.5793 11.623C 12.5793 9.9707 13.2296 7.93164 15.1369 7.93164C 16.2355 7.93164 17.1584 8.65234 17.422 9.76855L 18.4679 9.30273C 17.8527 7.93164 16.6838 7.03516 15.1369 7.03516C 12.6935 7.03516 11.4455 9.25 11.4455 11.623C 11.4455 14.0225 12.7111 16.1758 15.1545 16.1758ZM 23.9544 16.1758C 26.3626 16.1758 28.0589 14.0928 28.0589 11.5879C 28.0589 9.0918 26.3626 7.03516 23.9544 7.03516C 21.5462 7.03516 19.9027 9.0918 19.9027 11.5879C 19.9027 14.0928 21.5462 16.1758 23.9544 16.1758ZM 23.972 15.2793C 21.9593 15.2793 21.0013 13.4424 21.0013 11.5879C 21.0013 9.75098 21.9593 7.93164 23.9896 7.93164C 26.0286 7.93164 26.9603 9.75098 26.9603 11.5879C 26.9603 13.4072 26.0286 15.2793 23.972 15.2793ZM 31.8052 16.1758C 32.2358 16.1758 32.6489 16.0879 32.8774 16L 32.8774 15.1387C 32.7016 15.1738 32.3237 15.2266 31.9634 15.2266C 31.5151 15.2266 31.603 14.5234 31.603 14.7607L 31.603 3.58105L 30.4868 3.58105L 30.4868 14.2158C 30.4868 15.1562 30.3989 16.1758 31.8052 16.1758ZM 38.3727 16.1758C 40.7809 16.1758 42.4772 14.0928 42.4772 11.5879C 42.4772 9.0918 40.7809 7.03516 38.3727 7.03516C 35.9645 7.03516 34.3209 9.0918 34.3209 11.5879C 34.3209 14.0928 35.9645 16.1758 38.3727 16.1758ZM 38.3903 15.2793C 36.3776 15.2793 35.4196 13.4424 35.4196 11.5879C 35.4196 9.75098 36.3776 7.93164 38.4079 7.93164C 40.4469 7.93164 41.3786 9.75098 41.3786 11.5879C 41.3786 13.4072 40.4469 15.2793 38.3903 15.2793ZM 44.9227 16L 46.0213 16L 46.0213 11.4473C 46.0213 9.35547 46.8826 8.08105 48.5086 8.08105C 48.9393 8.08105 49.3172 8.16895 49.6072 8.42383L 50.0555 7.44824C 49.7479 7.2373 49.2996 7.03516 48.6844 7.03516C 47.5506 7.03516 46.5047 7.7207 46.0389 8.80176L 46.0389 7.21973L 44.9227 7.21973L 44.9227 16ZM 53.8017 16.1758C 55.2959 16.1758 56.7197 15.3145 56.7197 13.5479C 56.7197 10.3311 51.9121 11.4648 51.9121 9.26758C 51.9121 8.47656 52.5449 7.93164 53.5556 7.93164C 54.4873 7.93164 55.1728 8.38867 55.5683 9.21484L 56.3593 8.74902C 55.8584 7.73828 54.9004 7.03516 53.5908 7.03516C 52.1494 7.03516 50.9277 7.87891 50.9277 9.39062C 50.9277 12.3438 55.6562 11.1396 55.6562 13.7324C 55.6562 14.7959 54.8476 15.2793 53.8632 15.2793C 52.6679 15.2793 51.9121 14.5586 51.5957 13.5479L 50.6377 14.0752C 51.0332 15.1914 52.2021 16.1758 53.8017 16.1758ZM 59.6398 16L 61.2745 16L 61.2745 14.4531L 59.6398 14.4531L 59.6398 16ZM 67.3763 16.1758C 68.8704 16.1758 70.2942 15.3145 70.2942 13.5479C 70.2942 10.3311 65.4866 11.4648 65.4866 9.26758C 65.4866 8.47656 66.1194 7.93164 67.1302 7.93164C 68.0618 7.93164 68.7473 8.38867 69.1429 9.21484L 69.9339 8.74902C 69.4329 7.73828 68.4749 7.03516 67.1653 7.03516C 65.7239 7.03516 64.5022 7.87891 64.5022 9.39062C 64.5022 12.3438 69.2307 11.1396 69.2307 13.7324C 69.2307 14.7959 68.4221 15.2793 67.4378 15.2793C 66.2425 15.2793 65.4866 14.5586 65.1702 13.5479L 64.2122 14.0752C 64.6077 15.1914 65.7766 16.1758 67.3763 16.1758ZM 75.6049 16.1758C 77.1518 16.1758 78.3032 15.332 78.8129 13.9082L 77.8725 13.4775C 77.6088 14.5762 76.7036 15.2793 75.5873 15.2793C 73.6625 15.2793 73.0297 13.3018 73.0297 11.623C 73.0297 9.9707 73.6801 7.93164 75.5873 7.93164C 76.686 7.93164 77.6088 8.65234 77.8725 9.76855L 78.9184 9.30273C 78.3032 7.93164 77.1342 7.03516 75.5873 7.03516C 73.144 7.03516 71.8959 9.25 71.8959 11.623C 71.8959 14.0225 73.1616 16.1758 75.6049 16.1758ZM 83.5172 16.1758C 85.0113 16.1758 86.4352 15.3145 86.4352 13.5479C 86.4352 10.3311 81.6275 11.4648 81.6275 9.26758C 81.6275 8.47656 82.2604 7.93164 83.2711 7.93164C 84.2027 7.93164 84.8883 8.38867 85.2838 9.21484L 86.0748 8.74902C 85.5738 7.73828 84.6158 7.03516 83.3063 7.03516C 81.8648 7.03516 80.6432 7.87891 80.6432 9.39062C 80.6432 12.3438 85.3717 11.1396 85.3717 13.7324C 85.3717 14.7959 84.5631 15.2793 83.5787 15.2793C 82.3834 15.2793 81.6275 14.5586 81.3111 13.5479L 80.3531 14.0752C 80.7486 15.1914 81.9176 16.1758 83.5172 16.1758ZM 91.1482 16.1758C 92.6423 16.1758 94.0662 15.3145 94.0662 13.5479C 94.0662 10.3311 89.2586 11.4648 89.2586 9.26758C 89.2586 8.47656 89.8914 7.93164 90.9021 7.93164C 91.8338 7.93164 92.5193 8.38867 92.9148 9.21484L 93.7058 8.74902C 93.2048 7.73828 92.2468 7.03516 90.9373 7.03516C 89.4959 7.03516 88.2742 7.87891 88.2742 9.39062C 88.2742 12.3438 93.0027 11.1396 93.0027 13.7324C 93.0027 14.7959 92.1941 15.2793 91.2097 15.2793C 90.0144 15.2793 89.2586 14.5586 88.9422 13.5479L 87.9841 14.0752C 88.3797 15.1914 89.5486 16.1758 91.1482 16.1758Z"/>
<path id="path2_fill" d="M 2.07422 16.8438L 8.7627 16.8438L 8.7627 16L 2.07422 16L 2.07422 16.8438ZM 15.1545 16.1758C 16.7013 16.1758 17.8527 15.332 18.3625 13.9082L 17.422 13.4775C 17.1584 14.5762 16.2531 15.2793 15.1369 15.2793C 13.2121 15.2793 12.5793 13.3018 12.5793 11.623C 12.5793 9.9707 13.2296 7.93164 15.1369 7.93164C 16.2355 7.93164 17.1584 8.65234 17.422 9.76855L 18.4679 9.30273C 17.8527 7.93164 16.6838 7.03516 15.1369 7.03516C 12.6935 7.03516 11.4455 9.25 11.4455 11.623C 11.4455 14.0225 12.7111 16.1758 15.1545 16.1758ZM 22.5657 16.1758C 23.8665 16.1758 25.1234 15.5693 25.7386 14.1982L 25.7386 16L 26.6878 16L 26.6878 10.6035C 26.6878 8.45898 25.5364 7.03516 23.3392 7.03516C 21.9593 7.03516 20.8958 7.63281 20.1224 8.71387L 20.9134 9.33789C 21.3441 8.74902 22.1175 7.99316 23.4359 7.99316C 25.1409 7.99316 25.7034 9.25 25.7034 11.0342L 23.7523 11.0342C 21.1243 11.0342 19.7972 11.8955 19.7972 13.627C 19.7972 15.2266 20.9486 16.1758 22.5657 16.1758ZM 22.68 15.2441C 21.7396 15.2441 20.9486 14.8135 20.9486 13.6445C 20.9486 12.3262 21.9593 11.8955 23.8841 11.8955L 25.7034 11.8955C 25.7034 13.3896 24.6224 15.2441 22.68 15.2441ZM 29.6255 16L 30.7241 16L 30.7241 11.4473C 30.7241 9.35547 31.5854 8.08105 33.2114 8.08105C 33.6421 8.08105 34.02 8.16895 34.31 8.42383L 34.7583 7.44824C 34.4507 7.2373 34.0024 7.03516 33.3872 7.03516C 32.2534 7.03516 31.2075 7.7207 30.7417 8.80176L 30.7417 7.21973L 29.6255 7.21973L 29.6255 16ZM 41.5192 3.58105L 41.5192 8.49414C 40.9479 7.63281 40.0778 7.03516 38.7155 7.03516C 36.5182 7.03516 35.2526 9.07422 35.2526 11.6055C 35.2526 14.1279 36.5182 16.1758 38.7155 16.1758C 40.1305 16.1758 40.9391 15.543 41.5192 14.7168L 41.5192 16L 42.6178 16L 42.6178 3.58105L 41.5192 3.58105ZM 38.9967 15.2793C 37.1686 15.2793 36.3864 13.4775 36.3864 11.6055C 36.3864 9.75098 37.1686 7.93164 38.9967 7.93164C 40.8688 7.93164 41.6071 9.75098 41.6071 11.6055C 41.6071 13.4775 40.8688 15.2793 38.9967 15.2793ZM 48.157 16.1758C 49.6512 16.1758 51.075 15.3145 51.075 13.5479C 51.075 10.3311 46.2674 11.4648 46.2674 9.26758C 46.2674 8.47656 46.9002 7.93164 47.9109 7.93164C 48.8426 7.93164 49.5281 8.38867 49.9236 9.21484L 50.7146 8.74902C 50.2137 7.73828 49.2557 7.03516 47.9461 7.03516C 46.5047 7.03516 45.283 7.87891 45.283 9.39062C 45.283 12.3438 50.0115 11.1396 50.0115 13.7324C 50.0115 14.7959 49.2029 15.2793 48.2186 15.2793C 47.0232 15.2793 46.2674 14.5586 45.951 13.5479L 44.993 14.0752C 45.3885 15.1914 46.5574 16.1758 48.157 16.1758ZM 53.9951 16L 55.6298 16L 55.6298 14.4531L 53.9951 14.4531L 53.9951 16ZM 61.7316 16.1758C 63.2257 16.1758 64.6495 15.3145 64.6495 13.5479C 64.6495 10.3311 59.8419 11.4648 59.8419 9.26758C 59.8419 8.47656 60.4747 7.93164 61.4855 7.93164C 62.4171 7.93164 63.1027 8.38867 63.4982 9.21484L 64.2892 8.74902C 63.7882 7.73828 62.8302 7.03516 61.5206 7.03516C 60.0792 7.03516 58.8575 7.87891 58.8575 9.39062C 58.8575 12.3438 63.5861 11.1396 63.5861 13.7324C 63.5861 14.7959 62.7775 15.2793 61.7931 15.2793C 60.5978 15.2793 59.8419 14.5586 59.5255 13.5479L 58.5675 14.0752C 58.963 15.1914 60.132 16.1758 61.7316 16.1758ZM 69.9602 16.1758C 71.5071 16.1758 72.6585 15.332 73.1682 13.9082L 72.2278 13.4775C 71.9641 14.5762 71.0589 15.2793 69.9427 15.2793C 68.0179 15.2793 67.385 13.3018 67.385 11.623C 67.385 9.9707 68.0354 7.93164 69.9427 7.93164C 71.0413 7.93164 71.9641 8.65234 72.2278 9.76855L 73.2737 9.30273C 72.6585 7.93164 71.4895 7.03516 69.9427 7.03516C 67.4993 7.03516 66.2513 9.25 66.2513 11.623C 66.2513 14.0225 67.5169 16.1758 69.9602 16.1758ZM 77.8725 16.1758C 79.3666 16.1758 80.7905 15.3145 80.7905 13.5479C 80.7905 10.3311 75.9828 11.4648 75.9828 9.26758C 75.9828 8.47656 76.6157 7.93164 77.6264 7.93164C 78.558 7.93164 79.2436 8.38867 79.6391 9.21484L 80.4301 8.74902C 79.9291 7.73828 78.9711 7.03516 77.6616 7.03516C 76.2202 7.03516 74.9985 7.87891 74.9985 9.39062C 74.9985 12.3438 79.727 11.1396 79.727 13.7324C 79.727 14.7959 78.9184 15.2793 77.934 15.2793C 76.7387 15.2793 75.9828 14.5586 75.6664 13.5479L 74.7084 14.0752C 75.1039 15.1914 76.2729 16.1758 77.8725 16.1758ZM 85.5035 16.1758C 86.9977 16.1758 88.4215 15.3145 88.4215 13.5479C 88.4215 10.3311 83.6139 11.4648 83.6139 9.26758C 83.6139 8.47656 84.2467 7.93164 85.2574 7.93164C 86.1891 7.93164 86.8746 8.38867 87.2701 9.21484L 88.0611 8.74902C 87.5602 7.73828 86.6021 7.03516 85.2926 7.03516C 83.8512 7.03516 82.6295 7.87891 82.6295 9.39062C 82.6295 12.3438 87.358 11.1396 87.358 13.7324C 87.358 14.7959 86.5494 15.2793 85.565 15.2793C 84.3697 15.2793 83.6139 14.5586 83.2975 13.5479L 82.3395 14.0752C 82.735 15.1914 83.9039 16.1758 85.5035 16.1758Z"/>
<path id="path3_fill" d="M 2.07422 16.8438L 8.7627 16.8438L 8.7627 16L 2.07422 16L 2.07422 16.8438ZM 14.4513 16.1758C 14.9787 16.1758 15.3742 16.0879 15.5324 16.0176L 15.5324 15.1035C 15.2599 15.2266 14.9963 15.2969 14.7414 15.2969C 14.0734 15.2969 13.59 14.7959 13.59 13.8027L 13.59 8.11621L 15.8224 8.11621L 15.8224 7.21973L 13.59 7.21973L 13.59 4.13477L 12.4914 5.28613L 12.4914 7.21973L 11.0851 7.21973L 11.0851 8.11621L 12.4914 8.11621L 12.4914 13.6973C 12.4914 15.1738 12.9396 16.1758 14.4513 16.1758ZM 18.8655 19.7793L 19.9993 19.7793L 24.6224 7.21973L 23.4183 7.21973L 20.8607 14.6641L 18.1976 7.21973L 16.9759 7.21973L 20.3421 16L 18.8655 19.7793ZM 26.6723 19.8496L 27.771 19.8496L 27.771 14.7256C 28.3686 15.6396 29.3179 16.1758 30.5044 16.1758C 32.8511 16.1758 34.0376 14.1104 34.0376 11.6055C 34.0376 9.07422 32.8335 7.03516 30.5044 7.03516C 29.2651 7.03516 28.3335 7.63281 27.771 8.49414L 27.771 7.21973L 26.6723 7.21973L 26.6723 19.8496ZM 30.2934 15.2793C 28.4389 15.2793 27.6655 13.4775 27.6655 11.6055C 27.6655 9.75098 28.4389 7.93164 30.2934 7.93164C 32.1304 7.93164 32.9389 9.75098 32.9389 11.6055C 32.9389 13.4775 32.1304 15.2793 30.2934 15.2793ZM 39.9196 16.1758C 42.3278 16.1758 44.0241 14.0928 44.0241 11.5879C 44.0241 9.0918 42.3278 7.03516 39.9196 7.03516C 37.5114 7.03516 35.8678 9.0918 35.8678 11.5879C 35.8678 14.0928 37.5114 16.1758 39.9196 16.1758ZM 39.9371 15.2793C 37.9245 15.2793 36.9664 13.4424 36.9664 11.5879C 36.9664 9.75098 37.9245 7.93164 39.9547 7.93164C 41.9938 7.93164 42.9254 9.75098 42.9254 11.5879C 42.9254 13.4072 41.9938 15.2793 39.9371 15.2793ZM 49.4051 14.9189C 48.2361 14.7607 47.1375 14.4355 47.1375 13.4775C 47.1375 13.1611 47.3045 12.9414 47.5418 12.748C 48.0164 12.9854 48.5789 13.1172 49.1854 13.1172C 50.9871 13.1172 52.3582 12.0186 52.3582 10.1465C 52.3582 9.63672 52.2439 9.16211 52.0418 8.74023L 53.492 7.61523L 52.8416 6.78027L 51.5145 8.00195C 50.9607 7.44824 50.1609 7.10547 49.2029 7.10547C 47.3924 7.10547 46.0037 8.29199 46.0037 10.1465C 46.0037 10.9639 46.2762 11.6406 46.742 12.1416C 46.2498 12.5723 46.1443 13.0732 46.1443 13.5127C 46.1443 14.4092 46.6365 14.9717 47.3221 15.332L 45.9686 16.7207C 45.951 16.8438 45.951 16.958 45.951 17.0459C 45.951 18.6807 47.4451 19.999 49.66 19.999C 51.4178 19.999 53.0789 19.1465 53.0789 17.3887C 53.0789 15.4023 51.2244 15.1738 49.4051 14.9189ZM 49.1678 7.99316C 50.4334 7.99316 51.242 8.95996 51.242 10.1113C 51.242 11.377 50.4158 12.2031 49.1678 12.2031C 47.9285 12.2031 47.1199 11.377 47.1199 10.1113C 47.1199 8.99512 47.9109 7.99316 49.1678 7.99316ZM 49.783 18.9707C 47.9637 18.9707 46.9881 17.96 47.0145 17.0635L 48.201 15.6836C 48.4998 15.7715 48.8162 15.8418 49.115 15.8945C 50.6443 16.1582 52.1209 16.2021 52.1209 17.4414C 52.1209 18.4873 50.952 18.9707 49.783 18.9707ZM 55.5068 16L 56.6054 16L 56.6054 11.4473C 56.6054 9.35547 57.4668 8.08105 59.0927 8.08105C 59.5234 8.08105 59.9013 8.16895 60.1914 8.42383L 60.6396 7.44824C 60.332 7.2373 59.8838 7.03516 59.2685 7.03516C 58.1347 7.03516 57.0888 7.7207 56.623 8.80176L 56.623 7.21973L 55.5068 7.21973L 55.5068 16ZM 64.5177 16.1758C 65.8185 16.1758 67.0753 15.5693 67.6905 14.1982L 67.6905 16L 68.6398 16L 68.6398 10.6035C 68.6398 8.45898 67.4884 7.03516 65.2911 7.03516C 63.9113 7.03516 62.8478 7.63281 62.0743 8.71387L 62.8654 9.33789C 63.296 8.74902 64.0695 7.99316 65.3878 7.99316C 67.0929 7.99316 67.6554 9.25 67.6554 11.0342L 65.7042 11.0342C 63.0763 11.0342 61.7491 11.8955 61.7491 13.627C 61.7491 15.2266 62.9005 16.1758 64.5177 16.1758ZM 64.632 15.2441C 63.6915 15.2441 62.9005 14.8135 62.9005 13.6445C 62.9005 12.3262 63.9113 11.8955 65.8361 11.8955L 67.6554 11.8955C 67.6554 13.3896 66.5743 15.2441 64.632 15.2441ZM 71.595 19.8496L 72.6936 19.8496L 72.6936 14.7256C 73.2913 15.6396 74.2405 16.1758 75.427 16.1758C 77.7737 16.1758 78.9602 14.1104 78.9602 11.6055C 78.9602 9.07422 77.7561 7.03516 75.427 7.03516C 74.1878 7.03516 73.2561 7.63281 72.6936 8.49414L 72.6936 7.21973L 71.595 7.21973L 71.595 19.8496ZM 75.2161 15.2793C 73.3616 15.2793 72.5882 13.4775 72.5882 11.6055C 72.5882 9.75098 73.3616 7.93164 75.2161 7.93164C 77.053 7.93164 77.8616 9.75098 77.8616 11.6055C 77.8616 13.4775 77.053 15.2793 75.2161 15.2793ZM 81.5112 16L 82.5922 16L 82.5922 11.1924C 82.5922 9.54004 83.7787 8.11621 85.3608 8.11621C 86.934 8.11621 87.2944 9.52246 87.2944 10.7441L 87.2944 16L 88.4106 16L 88.4106 10.542C 88.4106 8.66992 87.5756 7.07031 85.5278 7.07031C 84.3237 7.07031 83.1459 7.77344 82.5922 8.7666L 82.5922 3.58105L 81.5112 3.58105L 81.5112 16ZM 92.1129 19.7793L 93.2467 19.7793L 97.8697 7.21973L 96.6656 7.21973L 94.108 14.6641L 91.4449 7.21973L 90.2232 7.21973L 93.5895 16L 92.1129 19.7793ZM 98.4959 16L 100.131 16L 100.131 14.4531L 98.4959 14.4531L 98.4959 16ZM 106.232 16.1758C 107.726 16.1758 109.15 15.3145 109.15 13.5479C 109.15 10.3311 104.343 11.4648 104.343 9.26758C 104.343 8.47656 104.976 7.93164 105.986 7.93164C 106.918 7.93164 107.603 8.38867 107.999 9.21484L 108.79 8.74902C 108.289 7.73828 107.331 7.03516 106.021 7.03516C 104.58 7.03516 103.358 7.87891 103.358 9.39062C 103.358 12.3438 108.087 11.1396 108.087 13.7324C 108.087 14.7959 107.278 15.2793 106.294 15.2793C 105.099 15.2793 104.343 14.5586 104.026 13.5479L 103.068 14.0752C 103.464 15.1914 104.633 16.1758 106.232 16.1758ZM 114.461 16.1758C 116.008 16.1758 117.159 15.332 117.669 13.9082L 116.729 13.4775C 116.465 14.5762 115.56 15.2793 114.443 15.2793C 112.519 15.2793 111.886 13.3018 111.886 11.623C 111.886 9.9707 112.536 7.93164 114.443 7.93164C 115.542 7.93164 116.465 8.65234 116.729 9.76855L 117.774 9.30273C 117.159 7.93164 115.99 7.03516 114.443 7.03516C 112 7.03516 110.752 9.25 110.752 11.623C 110.752 14.0225 112.018 16.1758 114.461 16.1758ZM 122.373 16.1758C 123.867 16.1758 125.291 15.3145 125.291 13.5479C 125.291 10.3311 120.484 11.4648 120.484 9.26758C 120.484 8.47656 121.116 7.93164 122.127 7.93164C 123.059 7.93164 123.744 8.38867 124.14 9.21484L 124.931 8.74902C 124.43 7.73828 123.472 7.03516 122.162 7.03516C 120.721 7.03516 119.499 7.87891 119.499 9.39062C 119.499 12.3438 124.228 11.1396 124.228 13.7324C 124.228 14.7959 123.419 15.2793 122.435 15.2793C 121.239 15.2793 120.484 14.5586 120.167 13.5479L 119.209 14.0752C 119.605 15.1914 120.774 16.1758 122.373 16.1758ZM 130.004 16.1758C 131.498 16.1758 132.922 15.3145 132.922 13.5479C 132.922 10.3311 128.115 11.4648 128.115 9.26758C 128.115 8.47656 128.747 7.93164 129.758 7.93164C 130.69 7.93164 131.375 8.38867 131.771 9.21484L 132.562 8.74902C 132.061 7.73828 131.103 7.03516 129.793 7.03516C 128.352 7.03516 127.13 7.87891 127.13 9.39062C 127.13 12.3438 131.859 11.1396 131.859 13.7324C 131.859 14.7959 131.05 15.2793 130.066 15.2793C 128.871 15.2793 128.115 14.5586 127.798 13.5479L 126.84 14.0752C 127.236 15.1914 128.405 16.1758 130.004 16.1758Z"/>
<path id="path4_fill" d="M 2.07422 16.8438L 8.7627 16.8438L 8.7627 16L 2.07422 16L 2.07422 16.8438ZM 16.3498 16.1758C 18.5998 16.1758 19.8302 14.1279 19.8302 11.6055C 19.8302 9.0918 18.5998 7.03516 16.3498 7.03516C 14.9875 7.03516 14.1173 7.66797 13.5636 8.49414L 13.5636 3.58105L 12.4826 3.58105L 12.4826 16L 13.5636 16L 13.5636 14.7256C 14.1173 15.5693 14.9875 16.1758 16.3498 16.1758ZM 16.0685 15.2793C 14.2316 15.2793 13.4757 13.4775 13.4757 11.6055C 13.4757 9.75098 14.2316 7.93164 16.0685 7.93164C 17.9054 7.93164 18.7316 9.75098 18.7316 11.6055C 18.7316 13.4775 17.9054 15.2793 16.0685 15.2793ZM 25.0267 16.2021C 26.5032 16.2021 27.5491 15.1387 27.8392 14.4004L 27.8392 16L 28.9202 16L 28.9202 7.21973L 27.8392 7.21973L 27.8392 12.3086C 27.8392 13.8203 26.5823 15.2969 25.0706 15.2969C 23.515 15.2969 23.1546 13.75 23.1546 12.5283L 23.1546 7.21973L 22.0648 7.21973L 22.0648 12.4316C 22.0648 14.5059 22.8909 16.2021 25.0267 16.2021ZM 34.3364 16.1758C 34.8638 16.1758 35.2593 16.0879 35.4175 16.0176L 35.4175 15.1035C 35.145 15.2266 34.8813 15.2969 34.6264 15.2969C 33.9585 15.2969 33.4751 14.7959 33.4751 13.8027L 33.4751 8.11621L 35.7075 8.11621L 35.7075 7.21973L 33.4751 7.21973L 33.4751 4.13477L 32.3764 5.28613L 32.3764 7.21973L 30.9702 7.21973L 30.9702 8.11621L 32.3764 8.11621L 32.3764 13.6973C 32.3764 15.1738 32.8247 16.1758 34.3364 16.1758ZM 40.1745 16.1758C 40.7018 16.1758 41.0973 16.0879 41.2555 16.0176L 41.2555 15.1035C 40.983 15.2266 40.7194 15.2969 40.4645 15.2969C 39.7965 15.2969 39.3131 14.7959 39.3131 13.8027L 39.3131 8.11621L 41.5455 8.11621L 41.5455 7.21973L 39.3131 7.21973L 39.3131 4.13477L 38.2145 5.28613L 38.2145 7.21973L 36.8082 7.21973L 36.8082 8.11621L 38.2145 8.11621L 38.2145 13.6973C 38.2145 15.1738 38.6627 16.1758 40.1745 16.1758ZM 47.0057 16.1758C 49.4139 16.1758 51.1102 14.0928 51.1102 11.5879C 51.1102 9.0918 49.4139 7.03516 47.0057 7.03516C 44.5975 7.03516 42.9539 9.0918 42.9539 11.5879C 42.9539 14.0928 44.5975 16.1758 47.0057 16.1758ZM 47.0232 15.2793C 45.0105 15.2793 44.0525 13.4424 44.0525 11.5879C 44.0525 9.75098 45.0105 7.93164 47.0408 7.93164C 49.0799 7.93164 50.0115 9.75098 50.0115 11.5879C 50.0115 13.4072 49.0799 15.2793 47.0232 15.2793ZM 53.5556 16L 54.6543 16L 54.6543 11.5C 54.6543 9.16211 55.8408 7.97559 57.2646 7.97559C 58.917 7.97559 59.33 9.52246 59.33 10.7441L 59.33 16L 60.4287 16L 60.4287 10.6562C 60.4287 8.69629 59.5849 7.07031 57.5546 7.07031C 56.166 7.07031 55.208 7.80859 54.6543 8.87207L 54.6543 7.21973L 53.5556 7.21973L 53.5556 16ZM 65.757 16.1758C 67.2511 16.1758 68.6749 15.3145 68.6749 13.5479C 68.6749 10.3311 63.8673 11.4648 63.8673 9.26758C 63.8673 8.47656 64.5001 7.93164 65.5109 7.93164C 66.4425 7.93164 67.128 8.38867 67.5236 9.21484L 68.3146 8.74902C 67.8136 7.73828 66.8556 7.03516 65.546 7.03516C 64.1046 7.03516 62.8829 7.87891 62.8829 9.39062C 62.8829 12.3438 67.6114 11.1396 67.6114 13.7324C 67.6114 14.7959 66.8029 15.2793 65.8185 15.2793C 64.6232 15.2793 63.8673 14.5586 63.5509 13.5479L 62.5929 14.0752C 62.9884 15.1914 64.1573 16.1758 65.757 16.1758ZM 71.595 16L 73.2298 16L 73.2298 14.4531L 71.595 14.4531L 71.595 16ZM 79.3315 16.1758C 80.8256 16.1758 82.2495 15.3145 82.2495 13.5479C 82.2495 10.3311 77.4418 11.4648 77.4418 9.26758C 77.4418 8.47656 78.0746 7.93164 79.0854 7.93164C 80.017 7.93164 80.7026 8.38867 81.0981 9.21484L 81.8891 8.74902C 81.3881 7.73828 80.4301 7.03516 79.1205 7.03516C 77.6791 7.03516 76.4575 7.87891 76.4575 9.39062C 76.4575 12.3438 81.186 11.1396 81.186 13.7324C 81.186 14.7959 80.3774 15.2793 79.393 15.2793C 78.1977 15.2793 77.4418 14.5586 77.1254 13.5479L 76.1674 14.0752C 76.5629 15.1914 77.7319 16.1758 79.3315 16.1758ZM 87.5602 16.1758C 89.107 16.1758 90.2584 15.332 90.7682 13.9082L 89.8277 13.4775C 89.5641 14.5762 88.6588 15.2793 87.5426 15.2793C 85.6178 15.2793 84.985 13.3018 84.985 11.623C 84.985 9.9707 85.6354 7.93164 87.5426 7.93164C 88.6412 7.93164 89.5641 8.65234 89.8277 9.76855L 90.8736 9.30273C 90.2584 7.93164 89.0895 7.03516 87.5426 7.03516C 85.0992 7.03516 83.8512 9.25 83.8512 11.623C 83.8512 14.0225 85.1168 16.1758 87.5602 16.1758ZM 95.4724 16.1758C 96.9666 16.1758 98.3904 15.3145 98.3904 13.5479C 98.3904 10.3311 93.5828 11.4648 93.5828 9.26758C 93.5828 8.47656 94.2156 7.93164 95.2263 7.93164C 96.158 7.93164 96.8435 8.38867 97.239 9.21484L 98.03 8.74902C 97.5291 7.73828 96.5711 7.03516 95.2615 7.03516C 93.8201 7.03516 92.5984 7.87891 92.5984 9.39062C 92.5984 12.3438 97.3269 11.1396 97.3269 13.7324C 97.3269 14.7959 96.5183 15.2793 95.534 15.2793C 94.3386 15.2793 93.5828 14.5586 93.2664 13.5479L 92.3084 14.0752C 92.7039 15.1914 93.8728 16.1758 95.4724 16.1758ZM 103.103 16.1758C 104.598 16.1758 106.021 15.3145 106.021 13.5479C 106.021 10.3311 101.214 11.4648 101.214 9.26758C 101.214 8.47656 101.847 7.93164 102.857 7.93164C 103.789 7.93164 104.475 8.38867 104.87 9.21484L 105.661 8.74902C 105.16 7.73828 104.202 7.03516 102.893 7.03516C 101.451 7.03516 100.229 7.87891 100.229 9.39062C 100.229 12.3438 104.958 11.1396 104.958 13.7324C 104.958 14.7959 104.149 15.2793 103.165 15.2793C 101.97 15.2793 101.214 14.5586 100.897 13.5479L 99.9394 14.0752C 100.335 15.1914 101.504 16.1758 103.103 16.1758Z"/>
<path id="path5_fill" d="M 1.5293 16L 2.64551 16L 2.64551 11.4824C 2.64551 9.78613 3.4541 7.93164 4.9834 7.93164C 6.5918 7.93164 6.95215 9.46973 6.95215 10.709L 6.95215 16L 8.06836 16L 8.06836 11.1221C 8.06836 9.61035 8.87695 7.93164 10.3887 7.93164C 12.0059 7.93164 12.3838 9.52246 12.3838 10.7441L 12.3838 16L 13.5 16L 13.5 10.6562C 13.5 8.66992 12.6562 7.03516 10.4941 7.03516C 9.2373 7.03516 8.33203 7.73828 7.81348 8.94238C 7.41797 7.63281 6.35449 7.03516 5.08008 7.03516C 3.90234 7.03516 2.95312 7.82617 2.64551 8.69629L 2.64551 7.21973L 1.5293 7.21973L 1.5293 16ZM 18.4152 16.1758C 19.716 16.1758 20.9728 15.5693 21.588 14.1982L 21.588 16L 22.5373 16L 22.5373 10.6035C 22.5373 8.45898 21.3859 7.03516 19.1886 7.03516C 17.8088 7.03516 16.7453 7.63281 15.9718 8.71387L 16.7629 9.33789C 17.1935 8.74902 17.967 7.99316 19.2853 7.99316C 20.9904 7.99316 21.5529 9.25 21.5529 11.0342L 19.6017 11.0342C 16.9738 11.0342 15.6466 11.8955 15.6466 13.627C 15.6466 15.2266 16.798 16.1758 18.4152 16.1758ZM 18.5295 15.2441C 17.589 15.2441 16.798 14.8135 16.798 13.6445C 16.798 12.3262 17.8088 11.8955 19.7336 11.8955L 21.5529 11.8955C 21.5529 13.3896 20.4718 15.2441 18.5295 15.2441ZM 25.387 5.19824L 26.6966 5.19824L 26.6966 3.58105L 25.387 3.58105L 25.387 5.19824ZM 25.4925 16L 26.5911 16L 26.5911 7.21973L 25.4925 7.21973L 25.4925 16ZM 29.7661 16L 30.8647 16L 30.8647 11.5C 30.8647 9.16211 32.0513 7.97559 33.4751 7.97559C 35.1274 7.97559 35.5405 9.52246 35.5405 10.7441L 35.5405 16L 36.6391 16L 36.6391 10.6562C 36.6391 8.69629 35.7954 7.07031 33.7651 7.07031C 32.3764 7.07031 31.4184 7.80859 30.8647 8.87207L 30.8647 7.21973L 29.7661 7.21973L 29.7661 16ZM 40.1745 16L 41.8092 16L 41.8092 14.4531L 40.1745 14.4531L 40.1745 16ZM 47.9109 16.1758C 49.4051 16.1758 50.8289 15.3145 50.8289 13.5479C 50.8289 10.3311 46.0213 11.4648 46.0213 9.26758C 46.0213 8.47656 46.6541 7.93164 47.6648 7.93164C 48.5965 7.93164 49.282 8.38867 49.6775 9.21484L 50.4686 8.74902C 49.9676 7.73828 49.0096 7.03516 47.7 7.03516C 46.2586 7.03516 45.0369 7.87891 45.0369 9.39062C 45.0369 12.3438 49.7654 11.1396 49.7654 13.7324C 49.7654 14.7959 48.9568 15.2793 47.9725 15.2793C 46.7771 15.2793 46.0213 14.5586 45.7049 13.5479L 44.7469 14.0752C 45.1424 15.1914 46.3113 16.1758 47.9109 16.1758ZM 56.1396 16.1758C 57.6865 16.1758 58.8379 15.332 59.3476 13.9082L 58.4072 13.4775C 58.1435 14.5762 57.2382 15.2793 56.122 15.2793C 54.1972 15.2793 53.5644 13.3018 53.5644 11.623C 53.5644 9.9707 54.2148 7.93164 56.122 7.93164C 57.2207 7.93164 58.1435 8.65234 58.4072 9.76855L 59.4531 9.30273C 58.8379 7.93164 57.6689 7.03516 56.122 7.03516C 53.6787 7.03516 52.4306 9.25 52.4306 11.623C 52.4306 14.0225 53.6963 16.1758 56.1396 16.1758ZM 64.0519 16.1758C 65.546 16.1758 66.9698 15.3145 66.9698 13.5479C 66.9698 10.3311 62.1622 11.4648 62.1622 9.26758C 62.1622 8.47656 62.795 7.93164 63.8058 7.93164C 64.7374 7.93164 65.423 8.38867 65.8185 9.21484L 66.6095 8.74902C 66.1085 7.73828 65.1505 7.03516 63.8409 7.03516C 62.3995 7.03516 61.1779 7.87891 61.1779 9.39062C 61.1779 12.3438 65.9064 11.1396 65.9064 13.7324C 65.9064 14.7959 65.0978 15.2793 64.1134 15.2793C 62.9181 15.2793 62.1622 14.5586 61.8458 13.5479L 60.8878 14.0752C 61.2833 15.1914 62.4523 16.1758 64.0519 16.1758ZM 71.6829 16.1758C 73.177 16.1758 74.6009 15.3145 74.6009 13.5479C 74.6009 10.3311 69.7932 11.4648 69.7932 9.26758C 69.7932 8.47656 70.4261 7.93164 71.4368 7.93164C 72.3684 7.93164 73.054 8.38867 73.4495 9.21484L 74.2405 8.74902C 73.7395 7.73828 72.7815 7.03516 71.472 7.03516C 70.0305 7.03516 68.8089 7.87891 68.8089 9.39062C 68.8089 12.3438 73.5374 11.1396 73.5374 13.7324C 73.5374 14.7959 72.7288 15.2793 71.7444 15.2793C 70.5491 15.2793 69.7932 14.5586 69.4768 13.5479L 68.5188 14.0752C 68.9143 15.1914 70.0833 16.1758 71.6829 16.1758Z"/>
<path id="path6_fill" d="M 2.07422 16.8438L 8.7627 16.8438L 8.7627 16L 2.07422 16L 2.07422 16.8438ZM 12.6671 16L 13.7482 16L 13.7482 8.11621L 16.3937 8.11621L 16.3937 7.21973L 13.7482 7.21973L 13.7482 5.70801C 13.7482 4.75 14.2668 4.30176 15.005 4.30176C 15.3478 4.30176 15.7257 4.40723 16.1213 4.5918L 16.341 3.72168C 15.9455 3.52832 15.4621 3.39648 14.9347 3.39648C 13.6955 3.39648 12.6671 4.11719 12.6671 5.66406L 12.6671 7.21973L 11.0675 7.21973L 11.0675 8.11621L 12.6671 8.11621L 12.6671 16ZM 21.3001 16.1758C 23.7083 16.1758 25.4046 14.0928 25.4046 11.5879C 25.4046 9.0918 23.7083 7.03516 21.3001 7.03516C 18.8919 7.03516 17.2484 9.0918 17.2484 11.5879C 17.2484 14.0928 18.8919 16.1758 21.3001 16.1758ZM 21.3177 15.2793C 19.305 15.2793 18.347 13.4424 18.347 11.5879C 18.347 9.75098 19.305 7.93164 21.3353 7.93164C 23.3743 7.93164 24.306 9.75098 24.306 11.5879C 24.306 13.4072 23.3743 15.2793 21.3177 15.2793ZM 27.8501 16L 28.9487 16L 28.9487 11.4473C 28.9487 9.35547 29.81 8.08105 31.436 8.08105C 31.8667 8.08105 32.2446 8.16895 32.5346 8.42383L 32.9829 7.44824C 32.6753 7.2373 32.227 7.03516 31.6118 7.03516C 30.478 7.03516 29.4321 7.7207 28.9663 8.80176L 28.9663 7.21973L 27.8501 7.21973L 27.8501 16ZM 34.901 16L 36.0172 16L 36.0172 11.4824C 36.0172 9.78613 36.8258 7.93164 38.3551 7.93164C 39.9635 7.93164 40.3239 9.46973 40.3239 10.709L 40.3239 16L 41.4401 16L 41.4401 11.1221C 41.4401 9.61035 42.2487 7.93164 43.7604 7.93164C 45.3776 7.93164 45.7555 9.52246 45.7555 10.7441L 45.7555 16L 46.8717 16L 46.8717 10.6562C 46.8717 8.66992 46.028 7.03516 43.8659 7.03516C 42.609 7.03516 41.7038 7.73828 41.1852 8.94238C 40.7897 7.63281 39.7262 7.03516 38.4518 7.03516C 37.2741 7.03516 36.3248 7.82617 36.0172 8.69629L 36.0172 7.21973L 34.901 7.21973L 34.901 16ZM 50.407 16L 52.0418 16L 52.0418 14.4531L 50.407 14.4531L 50.407 16ZM 58.1435 16.1758C 59.6377 16.1758 61.0615 15.3145 61.0615 13.5479C 61.0615 10.3311 56.2539 11.4648 56.2539 9.26758C 56.2539 8.47656 56.8867 7.93164 57.8974 7.93164C 58.8291 7.93164 59.5146 8.38867 59.9101 9.21484L 60.7011 8.74902C 60.2002 7.73828 59.2421 7.03516 57.9326 7.03516C 56.4912 7.03516 55.2695 7.87891 55.2695 9.39062C 55.2695 12.3438 59.998 11.1396 59.998 13.7324C 59.998 14.7959 59.1894 15.2793 58.205 15.2793C 57.0097 15.2793 56.2539 14.5586 55.9375 13.5479L 54.9795 14.0752C 55.375 15.1914 56.5439 16.1758 58.1435 16.1758ZM 66.3722 16.1758C 67.9191 16.1758 69.0704 15.332 69.5802 13.9082L 68.6398 13.4775C 68.3761 14.5762 67.4708 15.2793 66.3546 15.2793C 64.4298 15.2793 63.797 13.3018 63.797 11.623C 63.797 9.9707 64.4474 7.93164 66.3546 7.93164C 67.4532 7.93164 68.3761 8.65234 68.6398 9.76855L 69.6857 9.30273C 69.0704 7.93164 67.9015 7.03516 66.3546 7.03516C 63.9113 7.03516 62.6632 9.25 62.6632 11.623C 62.6632 14.0225 63.9288 16.1758 66.3722 16.1758ZM 74.2845 16.1758C 75.7786 16.1758 77.2024 15.3145 77.2024 13.5479C 77.2024 10.3311 72.3948 11.4648 72.3948 9.26758C 72.3948 8.47656 73.0276 7.93164 74.0384 7.93164C 74.97 7.93164 75.6555 8.38867 76.0511 9.21484L 76.8421 8.74902C 76.3411 7.73828 75.3831 7.03516 74.0735 7.03516C 72.6321 7.03516 71.4104 7.87891 71.4104 9.39062C 71.4104 12.3438 76.1389 11.1396 76.1389 13.7324C 76.1389 14.7959 75.3304 15.2793 74.346 15.2793C 73.1507 15.2793 72.3948 14.5586 72.0784 13.5479L 71.1204 14.0752C 71.5159 15.1914 72.6848 16.1758 74.2845 16.1758ZM 81.9155 16.1758C 83.4096 16.1758 84.8334 15.3145 84.8334 13.5479C 84.8334 10.3311 80.0258 11.4648 80.0258 9.26758C 80.0258 8.47656 80.6586 7.93164 81.6694 7.93164C 82.601 7.93164 83.2866 8.38867 83.6821 9.21484L 84.4731 8.74902C 83.9721 7.73828 83.0141 7.03516 81.7045 7.03516C 80.2631 7.03516 79.0414 7.87891 79.0414 9.39062C 79.0414 12.3438 83.77 11.1396 83.77 13.7324C 83.77 14.7959 82.9614 15.2793 81.977 15.2793C 80.7817 15.2793 80.0258 14.5586 79.7094 13.5479L 78.7514 14.0752C 79.1469 15.1914 80.3159 16.1758 81.9155 16.1758Z"/>
<path id="path7_stroke" d="M 0 77L 5.19615 68L -5.19615 68L 0 77ZM 0.9 0C 0.9 -0.497056 0.497056 -0.9 0 -0.9C -0.497056 -0.9 -0.9 -0.497056 -0.9 0L 0.9 0ZM -0.9 0L -0.9 1.02667L 0.9 1.02667L 0.9 0L -0.9 0ZM -0.9 4.10667L -0.9 6.16L 0.9 6.16L 0.9 4.10667L -0.9 4.10667ZM -0.9 9.24L -0.9 11.2933L 0.9 11.2933L 0.9 9.24L -0.9 9.24ZM -0.9 14.3733L -0.9 16.4267L 0.9 16.4267L 0.9 14.3733L -0.9 14.3733ZM -0.9 19.5067L -0.9 21.56L 0.9 21.56L 0.9 19.5067L -0.9 19.5067ZM -0.9 24.64L -0.9 26.6933L 0.9 26.6933L 0.9 24.64L -0.9 24.64ZM -0.9 29.7733L -0.9 31.8267L 0.9 31.8267L 0.9 29.7733L -0.9 29.7733ZM -0.9 34.9067L -0.9 36.96L 0.9 36.96L 0.9 34.9067L -0.9 34.9067ZM -0.9 40.04L -0.9 42.0933L 0.9 42.0933L 0.9 40.04L -0.9 40.04ZM -0.9 45.1733L -0.9 47.2267L 0.9 47.2267L 0.9 45.1733L -0.9 45.1733ZM -0.9 50.3067L -0.9 52.36L 0.9 52.36L 0.9 50.3067L -0.9 50.3067ZM -0.9 55.44L -0.9 57.4933L 0.9 57.4933L 0.9 55.44L -0.9 55.44ZM -0.9 60.5733L -0.9 62.6267L 0.9 62.6267L 0.9 60.5733L -0.9 60.5733ZM -0.9 65.7067L -0.9 67.76L 0.9 67.76L 0.9 65.7067L -0.9 65.7067ZM -0.9 70.84L -0.9 72.8933L 0.9 72.8933L 0.9 70.84L -0.9 70.84Z"/>
<path id="path8_stroke" d="M 0 70L 5.19615 61L -5.19615 61L 0 70ZM 0.9 0C 0.9 -0.497056 0.497056 -0.9 0 -0.9C -0.497056 -0.9 -0.9 -0.497056 -0.9 0L 0.9 0ZM -0.9 0L -0.9 1L 0.9 1L 0.9 0L -0.9 0ZM -0.9 4L -0.9 6L 0.9 6L 0.9 4L -0.9 4ZM -0.9 9L -0.9 11L 0.9 11L 0.9 9L -0.9 9ZM -0.9 14L -0.9 16L 0.9 16L 0.9 14L -0.9 14ZM -0.9 19L -0.9 21L 0.9 21L 0.9 19L -0.9 19ZM -0.9 24L -0.9 26L 0.9 26L 0.9 24L -0.9 24ZM -0.9 29L -0.9 31L 0.9 31L 0.9 29L -0.9 29ZM -0.9 34L -0.9 36L 0.9 36L 0.9 34L -0.9 34ZM -0.9 39L -0.9 41L 0.9 41L 0.9 39L -0.9 39ZM -0.9 44L -0.9 46L 0.9 46L 0.9 44L -0.9 44ZM -0.9 49L -0.9 51L 0.9 51L 0.9 49L -0.9 49ZM -0.9 54L -0.9 56L 0.9 56L 0.9 54L -0.9 54ZM -0.9 59L -0.9 61L 0.9 61L 0.9 59L -0.9 59ZM -0.9 64L -0.9 66L 0.9 66L 0.9 64L -0.9 64Z"/>
<path id="path9_stroke" d="M 27 27L 32.164 17.9815L 21.7718 18.0186L 27 27ZM -9.84561e-07 -0.9C -0.497057 -0.899999 -0.900001 -0.497055 -0.9 1.02135e-06C -0.899999 0.497057 -0.497055 0.900001 9.84561e-07 0.9L -9.84561e-07 -0.9ZM 9.84561e-07 0.9C 0.32256 0.9 0.641696 0.899999 0.957615 0.900128L 0.958349 -0.899872C 0.642 -0.900001 0.322493 -0.9 -9.84561e-07 -0.9L 9.84561e-07 0.9ZM 5.69 0.931907C 6.33502 0.943535 6.96256 0.959387 7.57313 0.980977L 7.63674 -0.817898C 7.01389 -0.839924 6.37576 -0.856023 5.72244 -0.867801L 5.69 0.931907ZM 12.2226 1.31968C 12.8573 1.39845 13.4656 1.49174 14.0487 1.60204L 14.3833 -0.166586C 13.7579 -0.284888 13.1115 -0.383799 12.4443 -0.466614L 12.2226 1.31968ZM 18.3224 2.96018C 18.8558 3.22549 19.3561 3.52426 19.8254 3.8607L 20.8742 2.39782C 20.3221 2.00199 19.7385 1.65417 19.124 1.34854L 18.3224 2.96018ZM 22.7504 7.08304C 23.0415 7.56732 23.3143 8.09304 23.5684 8.66426L 25.213 7.93255C 24.9312 7.29905 24.6248 6.70749 24.2931 6.1556L 22.7504 7.08304ZM 24.9468 13.019C 25.0736 13.5953 25.1899 14.1999 25.2958 14.8343L 27.0712 14.5381C 26.9607 13.8757 26.8386 13.2407 26.7047 12.6321L 24.9468 13.019ZM 25.8417 19.4619C 25.8885 20.0657 25.9289 20.6893 25.9629 21.3332L 27.7604 21.2383C 27.7256 20.5806 27.6843 19.9422 27.6363 19.3228L 25.8417 19.4619Z"/>
<path id="path10_stroke" d="M 52 23.9401L 43.1152 18.5493L 42.889 28.9392L 52 23.9401ZM 0.905078 0C 0.905078 -0.497056 0.502134 -0.9 0.00507786 -0.9C -0.491978 -0.9 -0.894922 -0.497056 -0.894922 0L 0.905078 0ZM -0.894922 0C -0.894922 0.354185 -0.895138 0.703256 -0.895481 1.04731L 0.904518 1.0491C 0.904862 0.704594 0.905078 0.354911 0.905078 0L -0.894922 0ZM -0.898203 6.16094C -0.896117 6.87006 -0.891961 7.55249 -0.884448 8.20894L 0.915434 8.18834C 0.907995 7.5384 0.903865 6.8613 0.90179 6.15564L -0.898203 6.16094ZM -0.697597 13.3619C -0.64189 14.1036 -0.570913 14.8015 -0.480299 15.4573L 1.30276 15.2109C 1.21829 14.5996 1.15088 13.9398 1.09735 13.2271L -0.697597 13.3619ZM 1.20581 20.6517C 1.63781 21.3107 2.15658 21.8783 2.7749 22.362L 3.88393 20.9442C 3.42367 20.5842 3.03778 20.1631 2.71113 19.6648L 1.20581 20.6517ZM 7.8902 24.3518C 8.54554 24.4648 9.24659 24.5559 9.99581 24.6288L 10.1703 22.8373C 9.45622 22.7677 8.79993 22.6821 8.1962 22.578L 7.8902 24.3518ZM 15.1528 24.8815C 15.8105 24.8922 16.4956 24.8978 17.209 24.8995L 17.2133 23.0995C 16.5065 23.0978 15.8298 23.0922 15.1819 23.0818L 15.1528 24.8815ZM 22.3336 24.8641C 23.0023 24.8556 23.6908 24.846 24.3996 24.8358L 24.3737 23.036C 23.6653 23.0461 22.9779 23.0557 22.3106 23.0643L 22.3336 24.8641ZM 29.4885 24.7638C 30.1563 24.7552 30.8391 24.747 31.5374 24.7394L 31.5178 22.9395C 30.8182 22.9471 30.1342 22.9554 29.4653 22.964L 29.4885 24.7638ZM 36.6327 24.7008C 37.3086 24.6981 37.9969 24.6964 38.6979 24.6959L 38.6966 22.8959C 37.9936 22.8964 37.3033 22.8981 36.6256 22.9008L 36.6327 24.7008ZM 43.7837 24.7142C 44.4537 24.7196 45.134 24.7262 45.8246 24.7342L 45.8456 22.9344C 45.1527 22.9263 44.4703 22.9197 43.7981 22.9143L 43.7837 24.7142Z"/>
<path id="path11_stroke" d="M 34 26L 39.1754 16.9881L 28.7832 17.012L 34 26ZM -7.23807e-07 -0.9C -0.497057 -0.9 -0.9 -0.497056 -0.9 7.68755e-07C -0.9 0.497057 -0.497056 0.9 7.23807e-07 0.9L -7.23807e-07 -0.9ZM 7.23807e-07 0.9C 0.323569 0.9 0.644077 0.899999 0.961602 0.900034L 0.961797 -0.899966C 0.644158 -0.9 0.32355 -0.9 -7.23807e-07 -0.9L 7.23807e-07 0.9ZM 5.67828 0.908296C 6.31857 0.91128 6.94446 0.915336 7.55631 0.920848L 7.57252 -0.879079C 6.9576 -0.884619 6.32906 -0.888691 5.68667 -0.891685L 5.67828 0.908296ZM 12.2683 1.00661C 12.9118 1.02619 13.5359 1.04935 14.1414 1.07673L 14.2227 -0.721437C 13.6073 -0.749267 12.9742 -0.772744 12.323 -0.792553L 12.2683 1.00661ZM 18.8028 1.42052C 19.4402 1.49132 20.049 1.57158 20.6306 1.66248L 20.9086 -0.115936C 20.2975 -0.211432 19.6621 -0.295102 19.0016 -0.368473L 18.8028 1.42052ZM 25.0389 2.75166C 25.6167 2.96792 26.1498 3.20802 26.6425 3.4741L 27.4979 1.89034C 26.9258 1.58134 26.3168 1.30801 25.6699 1.06589L 25.0389 2.75166ZM 29.8632 6.28623C 30.1881 6.74181 30.4844 7.24069 30.7539 7.78825L 32.3689 6.99339C 32.0597 6.36511 31.7143 5.78169 31.3287 5.24106L 29.8632 6.28623ZM 32.1373 12.0469C 32.2564 12.6206 32.3627 13.2253 32.4571 13.8632L 34.2377 13.5995C 34.1388 12.9314 34.0266 12.2923 33.8998 11.6812L 32.1373 12.0469ZM 32.9123 18.478C 32.9485 19.0799 32.9789 19.7026 33.004 20.3467L 34.8026 20.2767C 34.7771 19.6212 34.7461 18.9858 34.7091 18.37L 32.9123 18.478Z"/>
</defs>
</svg>
